<?xml version="1.0" standalone="no"?>
<!DOCTYPE svg PUBLIC "-//W3C//DTD SVG 20010904//EN"
 "http://www.w3.org/TR/2001/REC-SVG-20010904/DTD/svg10.dtd">
<svg version="1.0" xmlns="http://www.w3.org/2000/svg"
 width="362.000000pt" height="289.000000pt" viewBox="0 0 362.000000 289.000000"
 preserveAspectRatio="xMidYMid meet">

<g transform="translate(0.000000,289.000000) scale(0.100000,-0.100000)"
fill="#000000" stroke="none">
<path d="M2476 2055 c-9 -26 -7 -32 5 -12 6 10 9 21 6 23 -2 3 -7 -2 -11 -11z"/>
<path d="M1195 2050 c-3 -6 1 -47 10 -93 20 -100 64 -183 100 -189 14 -3 25
-2 25 1 0 18 -54 200 -67 226 -28 56 -55 77 -68 55z"/>
<path d="M1023 2021 c4 -16 25 -59 47 -96 23 -37 50 -90 61 -119 10 -28 37
-87 59 -131 22 -44 48 -100 58 -125 16 -39 33 -55 109 -107 120 -83 189 -138
208 -167 14 -21 15 -36 5 -103 -11 -82 -86 -402 -120 -511 -11 -35 -20 -67
-20 -71 0 -4 51 17 113 47 61 30 135 64 164 77 51 23 51 23 57 77 3 29 7 148
10 265 4 174 3 221 -10 265 -31 102 -88 174 -174 218 -75 38 -210 130 -250
170 -44 44 -52 47 -69 26 -21 -25 -1 -63 75 -144 41 -44 74 -84 74 -88 0 -12
-118 105 -151 150 -30 40 -37 84 -18 103 30 30 -171 293 -224 293 -5 0 -7 -13
-4 -29z"/>
<path d="M2205 2039 c-4 -6 -5 -12 -2 -15 2 -3 7 2 10 11 7 17 1 20 -8 4z"/>
<path d="M2246 1973 c-6 -14 -5 -15 5 -6 7 7 10 15 7 18 -3 3 -9 -2 -12 -12z"/>
<path d="M2440 1960 c-6 -11 -8 -20 -6 -20 3 0 10 9 16 20 6 11 8 20 6 20 -3
0 -10 -9 -16 -20z"/>
<path d="M1300 1955 c0 -3 14 -56 31 -118 27 -97 62 -167 76 -153 8 8 -59 241
-75 259 -14 16 -32 23 -32 12z"/>
<path d="M2216 1943 c-6 -14 -5 -15 5 -6 7 7 10 15 7 18 -3 3 -9 -2 -12 -12z"/>
<path d="M2410 1909 c-7 -11 -10 -23 -7 -25 2 -2 9 7 15 21 14 30 7 33 -8 4z"/>
<path d="M2140 1889 c0 -5 5 -7 10 -4 6 3 10 8 10 11 0 2 -4 4 -10 4 -5 0 -10
-5 -10 -11z"/>
<path d="M2264 1838 l-29 -33 33 29 c30 28 37 36 29 36 -2 0 -16 -15 -33 -32z"/>
<path d="M2376 1835 c-9 -26 -7 -32 5 -12 6 10 9 21 6 23 -2 3 -7 -2 -11 -11z"/>
<path d="M1404 1795 c23 -102 33 -128 53 -147 30 -28 31 -9 2 66 -21 58 -65
121 -55 81z"/>
<path d="M2339 1753 c-13 -16 -12 -17 4 -4 9 7 17 15 17 17 0 8 -8 3 -21 -13z"/>
<path d="M2299 1723 c-13 -16 -12 -17 4 -4 9 7 17 15 17 17 0 8 -8 3 -21 -13z"/>
<path d="M2084 1568 l-19 -23 23 19 c21 18 27 26 19 26 -2 0 -12 -10 -23 -22z"/>
</g>
</svg>
